<svg xmlns="http://www.w3.org/2000/svg" xmlns:xlink="http://www.w3.org/1999/xlink" contentStyleType="text/css" data-diagram-type="CLASS" height="977px" preserveAspectRatio="none" style="width:608px;height:977px;background:#FFFFFF;" version="1.1" viewBox="0 0 608 977" width="608px" zoomAndPan="magnify"><?plantuml 1.2026.3beta6?><defs/><g><!--class Price--><g class="entity" data-qualified-name="Price" data-source-line="5" id="ent0002"><rect fill="#F1F1F1" height="64.2969" rx="2.5" ry="2.5" style="stroke:#181818;stroke-width:0.5;" width="172.1182" x="214" y="773.13"/><ellipse cx="275.9302" cy="789.13" fill="#A9DCDF" rx="11" ry="11" style="stroke:#181818;stroke-width:1;"/><path d="M276.0396,784.4738 L274.8833,789.5519 L277.2114,789.5519 L276.0396,784.4738 Z M274.5552,782.2394 L277.5396,782.2394 L280.8989,794.63 L278.4458,794.63 L277.6802,791.5675 L274.3989,791.5675 L273.6489,794.63 L271.2114,794.63 L274.5552,782.2394 Z " fill="#000000"/><text fill="#000000" font-family="sans-serif" font-size="14" font-style="italic" font-weight="700" lengthAdjust="spacing" textLength="39.7578" x="296.4302" y="793.9767">Price</text><line style="stroke:#181818;stroke-width:0.5;" x1="215" x2="385.1182" y1="805.13" y2="805.13"/><line style="stroke:#181818;stroke-width:0.5;" x1="215" x2="385.1182" y1="813.13" y2="813.13"/><text fill="#000000" font-family="sans-serif" font-size="14" font-style="italic" lengthAdjust="spacing" textLength="160.1182" x="220" y="830.1251">+get_price_code() : int</text></g><!--class RegularPrice--><g class="entity" data-qualified-name="RegularPrice" data-source-line="9" id="ent0003"><rect fill="#F1F1F1" height="64.2969" rx="2.5" ry="2.5" style="stroke:#181818;stroke-width:0.5;" width="172.1182" x="7" y="898.42"/><ellipse cx="39.5258" cy="914.42" fill="#ADD1B2" rx="11" ry="11" style="stroke:#181818;stroke-width:1;"/><path d="M42.4946,920.0606 Q41.9165,920.3575 41.2758,920.4981 Q40.6352,920.6544 39.9321,920.6544 Q37.4321,920.6544 36.104,919.0138 Q34.7915,917.3575 34.7915,914.2325 Q34.7915,911.1075 36.104,909.4513 Q37.4321,907.795 39.9321,907.795 Q40.6352,907.795 41.2758,907.9513 Q41.9321,908.1075 42.4946,908.4044 L42.4946,911.1231 Q41.8696,910.545 41.2758,910.2794 Q40.6821,909.9981 40.0571,909.9981 Q38.7133,909.9981 38.0258,911.0763 Q37.3383,912.1388 37.3383,914.2325 Q37.3383,916.3263 38.0258,917.4044 Q38.7133,918.4669 40.0571,918.4669 Q40.6821,918.4669 41.2758,918.2013 Q41.8696,917.92 42.4946,917.3419 L42.4946,920.0606 Z " fill="#000000"/><text fill="#000000" font-family="sans-serif" font-size="14" font-weight="700" lengthAdjust="spacing" textLength="101.1719" x="57.4205" y="919.2667">RegularPrice</text><line style="stroke:#181818;stroke-width:0.5;" x1="8" x2="178.1182" y1="930.42" y2="930.42"/><line style="stroke:#181818;stroke-width:0.5;" x1="8" x2="178.1182" y1="938.42" y2="938.42"/><text fill="#000000" font-family="sans-serif" font-size="14" lengthAdjust="spacing" textLength="160.1182" x="13" y="955.4151">+get_price_code() : int</text></g><!--class NewReleasePrice--><g class="entity" data-qualified-name="NewReleasePrice" data-source-line="13" id="ent0004"><rect fill="#F1F1F1" height="64.2969" rx="2.5" ry="2.5" style="stroke:#181818;stroke-width:0.5;" width="172.1182" x="214" y="898.42"/><ellipse cx="230.9666" cy="914.42" fill="#ADD1B2" rx="11" ry="11" style="stroke:#181818;stroke-width:1;"/><path d="M233.9353,920.0606 Q233.3572,920.3575 232.7166,920.4981 Q232.0759,920.6544 231.3728,920.6544 Q228.8728,920.6544 227.5447,919.0138 Q226.2322,917.3575 226.2322,914.2325 Q226.2322,911.1075 227.5447,909.4513 Q228.8728,907.795 231.3728,907.795 Q232.0759,907.795 232.7166,907.9513 Q233.3728,908.1075 233.9353,908.4044 L233.9353,911.1231 Q233.3103,910.545 232.7166,910.2794 Q232.1228,909.9981 231.4978,909.9981 Q230.1541,909.9981 229.4666,911.0763 Q228.7791,912.1388 228.7791,914.2325 Q228.7791,916.3263 229.4666,917.4044 Q230.1541,918.4669 231.4978,918.4669 Q232.1228,918.4669 232.7166,918.2013 Q233.3103,917.92 233.9353,917.3419 L233.9353,920.0606 Z " fill="#000000"/><text fill="#000000" font-family="sans-serif" font-size="14" font-weight="700" lengthAdjust="spacing" textLength="135.748" x="245.4036" y="919.2667">NewReleasePrice</text><line style="stroke:#181818;stroke-width:0.5;" x1="215" x2="385.1182" y1="930.42" y2="930.42"/><line style="stroke:#181818;stroke-width:0.5;" x1="215" x2="385.1182" y1="938.42" y2="938.42"/><text fill="#000000" font-family="sans-serif" font-size="14" lengthAdjust="spacing" textLength="160.1182" x="220" y="955.4151">+get_price_code() : int</text></g><!--class ChildrensPrice--><g class="entity" data-qualified-name="ChildrensPrice" data-source-line="17" id="ent0005"><rect fill="#F1F1F1" height="64.2969" rx="2.5" ry="2.5" style="stroke:#181818;stroke-width:0.5;" width="172.1182" x="421" y="898.42"/><ellipse cx="447.6104" cy="914.42" fill="#ADD1B2" rx="11" ry="11" style="stroke:#181818;stroke-width:1;"/><path d="M450.5791,920.0606 Q450.001,920.3575 449.3604,920.4981 Q448.7197,920.6544 448.0166,920.6544 Q445.5166,920.6544 444.1885,919.0138 Q442.876,917.3575 442.876,914.2325 Q442.876,911.1075 444.1885,909.4513 Q445.5166,907.795 448.0166,907.795 Q448.7197,907.795 449.3604,907.9513 Q450.0166,908.1075 450.5791,908.4044 L450.5791,911.1231 Q449.9541,910.545 449.3604,910.2794 Q448.7666,909.9981 448.1416,909.9981 Q446.7979,909.9981 446.1104,911.0763 Q445.4229,912.1388 445.4229,914.2325 Q445.4229,916.3263 446.1104,917.4044 Q446.7979,918.4669 448.1416,918.4669 Q448.7666,918.4669 449.3604,918.2013 Q449.9541,917.92 450.5791,917.3419 L450.5791,920.0606 Z " fill="#000000"/><text fill="#000000" font-family="sans-serif" font-size="14" font-weight="700" lengthAdjust="spacing" textLength="114.3174" x="464.1904" y="919.2667">ChildrensPrice</text><line style="stroke:#181818;stroke-width:0.5;" x1="422" x2="592.1182" y1="930.42" y2="930.42"/><line style="stroke:#181818;stroke-width:0.5;" x1="422" x2="592.1182" y1="938.42" y2="938.42"/><text fill="#000000" font-family="sans-serif" font-size="14" lengthAdjust="spacing" textLength="160.1182" x="427" y="955.4151">+get_price_code() : int</text></g><!--class Movie--><g class="entity" data-qualified-name="Movie" data-source-line="25" id="ent0009"><rect fill="#F1F1F1" height="210.9688" rx="2.5" ry="2.5" style="stroke:#181818;stroke-width:0.5;" width="271.8135" x="164.15" y="485.16"/><ellipse cx="272.3219" cy="501.16" fill="#ADD1B2" rx="11" ry="11" style="stroke:#181818;stroke-width:1;"/><path d="M275.2906,506.8006 Q274.7125,507.0975 274.0719,507.2381 Q273.4313,507.3944 272.7281,507.3944 Q270.2281,507.3944 268.9,505.7538 Q267.5875,504.0975 267.5875,500.9725 Q267.5875,497.8475 268.9,496.1913 Q270.2281,494.535 272.7281,494.535 Q273.4313,494.535 274.0719,494.6913 Q274.7281,494.8475 275.2906,495.1444 L275.2906,497.8631 Q274.6656,497.285 274.0719,497.0194 Q273.4781,496.7381 272.8531,496.7381 Q271.5094,496.7381 270.8219,497.8163 Q270.1344,498.8788 270.1344,500.9725 Q270.1344,503.0663 270.8219,504.1444 Q271.5094,505.2069 272.8531,505.2069 Q273.4781,505.2069 274.0719,504.9413 Q274.6656,504.66 275.2906,504.0819 L275.2906,506.8006 Z " fill="#000000"/><text fill="#000000" font-family="sans-serif" font-size="14" font-weight="700" lengthAdjust="spacing" textLength="46.9697" x="292.8219" y="506.0067">Movie</text><line style="stroke:#181818;stroke-width:0.5;" x1="165.15" x2="434.9635" y1="517.16" y2="517.16"/><text fill="#000000" font-family="sans-serif" font-size="14" lengthAdjust="spacing" text-decoration="underline" textLength="139.9111" x="170.15" y="534.1551">+REGULAR : int = 0</text><text fill="#000000" font-family="sans-serif" font-size="14" lengthAdjust="spacing" text-decoration="underline" textLength="175.8271" x="170.15" y="550.452">+NEW_RELEASE : int = 1</text><text fill="#000000" font-family="sans-serif" font-size="14" lengthAdjust="spacing" text-decoration="underline" textLength="154.082" x="170.15" y="566.7489">+CHILDRENS : int = 2</text><text fill="#000000" font-family="sans-serif" font-size="14" lengthAdjust="spacing" textLength="71.5791" x="170.15" y="583.0457">-_title : str</text><text fill="#000000" font-family="sans-serif" font-size="14" lengthAdjust="spacing" textLength="94.9102" x="170.15" y="599.3426">-_price : Price</text><line style="stroke:#181818;stroke-width:0.5;" x1="165.15" x2="434.9635" y1="606.6444" y2="606.6444"/><text fill="#000000" font-family="sans-serif" font-size="14" lengthAdjust="spacing" textLength="184.6729" x="170.15" y="623.6395">+__init__(title, price_code)</text><text fill="#000000" font-family="sans-serif" font-size="14" lengthAdjust="spacing" textLength="112.1709" x="170.15" y="639.9364">+get_title() : str</text><text fill="#000000" font-family="sans-serif" font-size="14" lengthAdjust="spacing" textLength="160.1182" x="170.15" y="656.2332">+get_price_code() : int</text><text fill="#000000" font-family="sans-serif" font-size="14" lengthAdjust="spacing" textLength="229.6807" x="170.15" y="672.5301">+set_price_code(price_code: int)</text><text fill="#000000" font-family="sans-serif" font-size="14" lengthAdjust="spacing" textLength="259.8135" x="170.15" y="688.827">+get_charge(days_rented: int) : float</text></g><!--class Rental--><g class="entity" data-qualified-name="Rental" data-source-line="38" id="ent0010"><rect fill="#F1F1F1" height="162.0781" rx="2.5" ry="2.5" style="stroke:#181818;stroke-width:0.5;" width="300.9824" x="149.57" y="246.08"/><ellipse cx="270.2209" cy="262.08" fill="#ADD1B2" rx="11" ry="11" style="stroke:#181818;stroke-width:1;"/><path d="M273.1896,267.7206 Q272.6115,268.0175 271.9709,268.1581 Q271.3303,268.3144 270.6271,268.3144 Q268.1271,268.3144 266.799,266.6738 Q265.4865,265.0175 265.4865,261.8925 Q265.4865,258.7675 266.799,257.1113 Q268.1271,255.455 270.6271,255.455 Q271.3303,255.455 271.9709,255.6113 Q272.6271,255.7675 273.1896,256.0644 L273.1896,258.7831 Q272.5646,258.205 271.9709,257.9394 Q271.3771,257.6581 270.7521,257.6581 Q269.4084,257.6581 268.7209,258.7363 Q268.0334,259.7988 268.0334,261.8925 Q268.0334,263.9863 268.7209,265.0644 Q269.4084,266.1269 270.7521,266.1269 Q271.3771,266.1269 271.9709,265.8613 Q272.5646,265.58 273.1896,265.0019 L273.1896,267.7206 Z " fill="#000000"/><text fill="#000000" font-family="sans-serif" font-size="14" font-weight="700" lengthAdjust="spacing" textLength="51.1807" x="290.7209" y="266.9267">Rental</text><line style="stroke:#181818;stroke-width:0.5;" x1="150.57" x2="449.5524" y1="278.08" y2="278.08"/><text fill="#000000" font-family="sans-serif" font-size="14" lengthAdjust="spacing" textLength="110.0928" x="155.57" y="295.0751">-_movie : Movie</text><text fill="#000000" font-family="sans-serif" font-size="14" lengthAdjust="spacing" textLength="76.9658" x="155.57" y="311.372">-_days : int</text><line style="stroke:#181818;stroke-width:0.5;" x1="150.57" x2="449.5524" y1="318.6738" y2="318.6738"/><text fill="#000000" font-family="sans-serif" font-size="14" lengthAdjust="spacing" textLength="288.9824" x="155.57" y="335.6689">+__init__(movie: Movie, days_rented: int)</text><text fill="#000000" font-family="sans-serif" font-size="14" lengthAdjust="spacing" textLength="170.7891" x="155.57" y="351.9657">+get_days_rented() : int</text><text fill="#000000" font-family="sans-serif" font-size="14" lengthAdjust="spacing" textLength="150.6846" x="155.57" y="368.2626">+get_movie() : Movie</text><text fill="#000000" font-family="sans-serif" font-size="14" lengthAdjust="spacing" textLength="146.1182" x="155.57" y="384.5595">+get_charge() : float</text><text fill="#000000" font-family="sans-serif" font-size="14" lengthAdjust="spacing" textLength="244.6445" x="155.57" y="400.8564">+get_frequent_renter_points() : int</text></g><!--class Customer--><g class="entity" data-qualified-name="Customer" data-source-line="48" id="ent0011"><rect fill="#F1F1F1" height="162.0781" rx="2.5" ry="2.5" style="stroke:#181818;stroke-width:0.5;" width="204.7461" x="197.69" y="7"/><ellipse cx="257.877" cy="23" fill="#ADD1B2" rx="11" ry="11" style="stroke:#181818;stroke-width:1;"/><path d="M260.8458,28.6406 Q260.2676,28.9375 259.627,29.0781 Q258.9864,29.2344 258.2833,29.2344 Q255.7833,29.2344 254.4551,27.5938 Q253.1426,25.9375 253.1426,22.8125 Q253.1426,19.6875 254.4551,18.0313 Q255.7833,16.375 258.2833,16.375 Q258.9864,16.375 259.627,16.5313 Q260.2833,16.6875 260.8458,16.9844 L260.8458,19.7031 Q260.2208,19.125 259.627,18.8594 Q259.0333,18.5781 258.4083,18.5781 Q257.0645,18.5781 256.377,19.6563 Q255.6895,20.7188 255.6895,22.8125 Q255.6895,24.9063 256.377,25.9844 Q257.0645,27.0469 258.4083,27.0469 Q259.0333,27.0469 259.627,26.7813 Q260.2208,26.5 260.8458,25.9219 L260.8458,28.6406 Z " fill="#000000"/><text fill="#000000" font-family="sans-serif" font-size="14" font-weight="700" lengthAdjust="spacing" textLength="75.8721" x="278.377" y="27.8467">Customer</text><line style="stroke:#181818;stroke-width:0.5;" x1="198.69" x2="401.4361" y1="39" y2="39"/><text fill="#000000" font-family="sans-serif" font-size="14" lengthAdjust="spacing" textLength="76.9111" x="203.69" y="55.9951">-name : str</text><text fill="#000000" font-family="sans-serif" font-size="14" lengthAdjust="spacing" textLength="160.2686" x="203.69" y="72.292">-rentals : List&lt;Rental&gt;</text><line style="stroke:#181818;stroke-width:0.5;" x1="198.69" x2="401.4361" y1="79.5938" y2="79.5938"/><text fill="#000000" font-family="sans-serif" font-size="14" lengthAdjust="spacing" textLength="140.2051" x="203.69" y="96.5889">+__init__(name: str)</text><text fill="#000000" font-family="sans-serif" font-size="14" lengthAdjust="spacing" textLength="124.5029" x="203.69" y="112.8857">+get_name() : str</text><text fill="#000000" font-family="sans-serif" font-size="14" lengthAdjust="spacing" textLength="192.7461" x="203.69" y="129.1826">+add_rental(rental: Rental)</text><text fill="#000000" font-family="sans-serif" font-size="14" lengthAdjust="spacing" textLength="185.4521" x="203.69" y="145.4795">-_get_total_charge() : float</text><text fill="#000000" font-family="sans-serif" font-size="14" lengthAdjust="spacing" textLength="126.8887" x="203.69" y="161.7764">+statement() : str</text></g><!--reverse link Price to RegularPrice--><g class="link" data-entity-1="ent0002" data-entity-2="ent0003" data-link-type="extension" data-source-line="21" id="lnk6"><path codeLine="21" d="M231.5562,847.0825 C200.5362,865.5625 176.96,879.6 145.96,898.06" fill="none" id="Price-backto-RegularPrice" style="stroke:#181818;stroke-width:1;"/><polygon fill="none" points="247.02,837.87,228.4853,841.9279,234.627,852.2371,247.02,837.87" style="stroke:#181818;stroke-width:1;"/></g><!--reverse link Price to NewReleasePrice--><g class="link" data-entity-1="ent0002" data-entity-2="ent0004" data-link-type="extension" data-source-line="22" id="lnk7"><path codeLine="22" d="M300.06,855.71 C300.06,874.26 300.06,879.66 300.06,898.2" fill="none" id="Price-backto-NewReleasePrice" style="stroke:#181818;stroke-width:1;"/><polygon fill="none" points="300.06,837.71,294.06,855.71,306.06,855.71,300.06,837.71" style="stroke:#181818;stroke-width:1;"/></g><!--reverse link Price to ChildrensPrice--><g class="link" data-entity-1="ent0002" data-entity-2="ent0005" data-link-type="extension" data-source-line="23" id="lnk8"><path codeLine="23" d="M368.5638,847.0825 C399.5838,865.5625 423.16,879.6 454.16,898.06" fill="none" id="Price-backto-ChildrensPrice" style="stroke:#181818;stroke-width:1;"/><polygon fill="none" points="353.1,837.87,365.493,852.2371,371.6347,841.9279,353.1,837.87" style="stroke:#181818;stroke-width:1;"/></g><!--link Movie to Price--><g class="link" data-entity-1="ent0009" data-entity-2="ent0002" data-link-type="dependency" data-source-line="58" id="lnk12"><path codeLine="58" d="M300.06,696.4 C300.06,724.29 300.06,746.31 300.06,766.81" fill="none" id="Movie-to-Price" style="stroke:#181818;stroke-width:1;"/><polygon fill="#181818" points="300.06,772.81,304.06,763.81,300.06,767.81,296.06,763.81,300.06,772.81" style="stroke:#181818;stroke-width:1;"/><polygon fill="#000000" points="305.06,739.6964,307.9989,730.6513,302.1211,730.6513,305.06,739.6964" style="stroke:#000000;stroke-width:1;"/><text fill="#000000" font-family="sans-serif" font-size="13" lengthAdjust="spacing" textLength="38.854" x="314.06" y="739.1969">_price</text><text fill="#000000" font-family="sans-serif" font-size="13" lengthAdjust="spacing" textLength="8.271" x="291.8006" y="716.0807">1</text><text fill="#000000" font-family="sans-serif" font-size="13" lengthAdjust="spacing" textLength="8.271" x="291.2994" y="762.0212">1</text></g><!--reverse link Customer to Rental--><g class="link" data-entity-1="ent0011" data-entity-2="ent0010" data-link-type="aggregation" data-source-line="59" id="lnk13"><path codeLine="59" d="M300.06,181.3 C300.06,206.02 300.06,221.23 300.06,245.94" fill="none" id="Customer-backto-Rental" style="stroke:#181818;stroke-width:1;"/><polygon fill="none" points="300.06,169.3,296.06,175.3,300.06,181.3,304.06,175.3,300.06,169.3" style="stroke:#181818;stroke-width:1;"/><polygon fill="#000000" points="305.06,212.6464,307.9989,203.6013,302.1211,203.6013,305.06,212.6464" style="stroke:#000000;stroke-width:1;"/><text fill="#000000" font-family="sans-serif" font-size="13" lengthAdjust="spacing" textLength="45.0303" x="314.06" y="212.1469">rentals</text><text fill="#000000" font-family="sans-serif" font-size="13" lengthAdjust="spacing" textLength="8.271" x="291.7155" y="189.2781">1</text><text fill="#000000" font-family="sans-serif" font-size="13" lengthAdjust="spacing" textLength="23.0356" x="276.0373" y="235.1148">0..*</text></g><!--link Rental to Movie--><g class="link" data-entity-1="ent0010" data-entity-2="ent0009" data-link-type="dependency" data-source-line="60" id="lnk14"><path codeLine="60" d="M300.06,408.36 C300.06,432.54 300.06,453.43 300.06,478.95" fill="none" id="Rental-to-Movie" style="stroke:#181818;stroke-width:1;"/><polygon fill="#181818" points="300.06,484.95,304.06,475.95,300.06,479.95,296.06,475.95,300.06,484.95" style="stroke:#181818;stroke-width:1;"/><polygon fill="#000000" points="305.06,451.7264,307.9989,442.6813,302.1211,442.6813,305.06,451.7264" style="stroke:#000000;stroke-width:1;"/><text fill="#000000" font-family="sans-serif" font-size="13" lengthAdjust="spacing" textLength="46.4204" x="314.06" y="451.2269">_movie</text><text fill="#000000" font-family="sans-serif" font-size="13" lengthAdjust="spacing" textLength="8.271" x="291.7157" y="428.3363">1</text><text fill="#000000" font-family="sans-serif" font-size="13" lengthAdjust="spacing" textLength="8.271" x="291.7885" y="474.0626">1</text></g><?plantuml-src bLFHJjim57ttLrXzQWT1TE8fOf4go3QaKg5KqnujDxaKQqdSsRUR6F3lEBQJs1q8w4khUyuzlkVSM_rBj3kkU4FBcckzG5HYiqUuAcMx5l-0dX8TKxxA5YqoFtiHmliQw4RM5I5yer7n4XrARvGeWJuGQZuFFVP4ZxQ0RDTXh9GLJ6SqfQ95yaI8wojWkw-v2jlVx5d1tm9gu1e-r7Pn9-fAGQlVsULevuz94aqPrWyc2Q7ujNw6Q_b7335fv2XA4rAHV_knN1JkQVh5x2N6L_bFLkJBVB7E1yxyW7Fn_MfvMUIhzS3uR1a9Gu5cQoarE_4LwzTKt6Ws1iP4Av2ngMKVqp6IsPYJnMn4lTPhyLbCnzZuqt82tVAEgorCAtwlcOaCeN8C8tPRInwTIukyzW4chB5nfYvMN-jKmYa6PvRikSVqlyV6SG8eDjI1LiMMnqT34-FG0tAhuFVUo3bDnNRIAEeN3dIlKJQWUdijRwAzAMk-CxSK6izT5jc1owx9zWI6kbgyDbvLpCbDtLVgevtv5EswfIcyugkxEsXCow1hRBZhdimdD4ao-ttZBysVN4O6ZnqgpVzaSdfoycdIBpQblScC-58eT-ttxHUVFGC0?></g></svg>